{
  "accessors": [
    {
      "bufferView": 2,
      "componentType": 5126,
      "count": 972,
      "max": [
        21.120208740234375,
        17.2929744720459,
        43.54511260986328
      ],
      "min": [
        -20.70718002319336,
        -28.94567108154297,
        0.0
      ],
      "type": "VEC3"
    },
    {
      "bufferView": 2,
      "byteOffset": 11664,
      "componentType": 5126,
      "count": 972,
      "max": [
        0.9871209859848022,
        0.9961771965026855,
        0.9900165796279907
      ],
      "min": [
        -0.9915822744369507,
        -0.987224817276001,
        -0.9872609376907349
      ],
      "type": "VEC3"
    },
    {
      "bufferView": 3,
      "componentType": 5126,
      "count": 972,
      "max": [
        0.9995574355125427,
        0.9993756413459778,
        0.9871078133583069,
        1.0
      ],
      "min": [
        -1.0,
        -0.9935775995254517,
        -0.9870920777320862,
        1.0
      ],
      "type": "VEC4"
    },
    {
      "bufferView": 1,
      "componentType": 5126,
      "count": 972,
      "max": [
        0.9733538031578064,
        0.9799999594688416
      ],
      "min": [
        0.019999999552965164,
        0.019999999552965164
      ],
      "type": "VEC2"
    },
    {
      "bufferView": 0,
      "componentType": 5125,
      "count": 3720,
      "type": "SCALAR"
    },
    {
      "bufferView": 2,
      "byteOffset": 23328,
      "componentType": 5126,
      "count": 616,
      "max": [
        6.407482147216797,
        42.29329299926758,
        33.992435455322266
      ],
      "min": [
        -37.91572570800781,
        -39.44172668457031,
        -2.411472797393799
      ],
      "type": "VEC3"
    },
    {
      "bufferView": 2,
      "byteOffset": 30720,
      "componentType": 5126,
      "count": 616,
      "max": [
        0.999768853187561,
        1.0,
        0.999998927116394
      ],
      "min": [
        -0.999768853187561,
        -1.0,
        -1.0
      ],
      "type": "VEC3"
    },
    {
      "bufferView": 3,
      "byteOffset": 15552,
      "componentType": 5126,
      "count": 616,
      "max": [
        0.9758453369140625,
        0.6664608716964722,
        0.9850720763206482,
        1.0
      ],
      "min": [
        -1.0,
        -0.9285179376602173,
        -0.9999997019767761,
        1.0
      ],
      "type": "VEC4"
    },
    {
      "bufferView": 1,
      "byteOffset": 7776,
      "componentType": 5126,
      "count": 616,
      "max": [
        0.9700427651405334,
        0.999500036239624
      ],
      "min": [
        0.0005000000237487257,
        0.0005000000237487257
      ],
      "type": "VEC2"
    },
    {
      "bufferView": 0,
      "byteOffset": 14880,
      "componentType": 5125,
      "count": 1968,
      "type": "SCALAR"
    }
  ],
  "asset": {
    "extras": {
      "author": "Sapizon (https://sketchfab.com/sapizon)",
      "license": "CC-BY-4.0 (http://creativecommons.org/licenses/by/4.0/)",
      "source": "https://sketchfab.com/3d-models/wooden-sitting-chair-51aca9d2794b4462973260bb8c5f5ad0",
      "title": "Wooden Sitting Chair"
    },
    "generator": "Sketchfab-12.68.0",
    "version": "2.0"
  },
  "bufferViews": [
    {
      "buffer": 0,
      "byteLength": 22752,
      "name": "floatBufferViews",
      "target": 34963
    },
    {
      "buffer": 0,
      "byteLength": 12704,
      "byteOffset": 22752,
      "byteStride": 8,
      "name": "floatBufferViews",
      "target": 34962
    },
    {
      "buffer": 0,
      "byteLength": 38112,
      "byteOffset": 35456,
      "byteStride": 12,
      "name": "floatBufferViews",
      "target": 34962
    },
    {
      "buffer": 0,
      "byteLength": 25408,
      "byteOffset": 73568,
      "byteStride": 16,
      "name": "floatBufferViews",
      "target": 34962
    }
  ],
  "buffers": [
    {
      "byteLength": 98976,
      "uri": "scene.bin"
    }
  ],
  "images": [
    {
      "uri": "textures/Idolf_seat_baseColor.png"
    },
    {
      "uri": "textures/Idolf_seat_metallicRoughness.png"
    },
    {
      "uri": "textures/Idolf_seat_normal.png"
    },
    {
      "uri": "textures/Idolf_lag_baseColor.png"
    },
    {
      "uri": "textures/Idolf_lag_metallicRoughness.png"
    },
    {
      "uri": "textures/Idolf_lag_normal.png"
    }
  ],
  "materials": [
    {
      "doubleSided": true,
      "name": "Idolf_seat",
      "normalTexture": {
        "index": 2
      },
      "occlusionTexture": {
        "index": 1
      },
      "pbrMetallicRoughness": {
        "baseColorTexture": {
          "index": 0
        },
        "metallicRoughnessTexture": {
          "index": 1
        }
      }
    },
    {
      "doubleSided": true,
      "name": "Idolf_lag",
      "normalTexture": {
        "index": 5
      },
      "occlusionTexture": {
        "index": 4
      },
      "pbrMetallicRoughness": {
        "baseColorTexture": {
          "index": 3
        },
        "metallicRoughnessTexture": {
          "index": 4
        }
      }
    }
  ],
  "meshes": [
    {
      "name": "Line001_Idolf seat_0",
      "primitives": [
        {
          "attributes": {
            "NORMAL": 1,
            "POSITION": 0,
            "TANGENT": 2,
            "TEXCOORD_0": 3
          },
          "indices": 4,
          "material": 0,
          "mode": 4
        }
      ]
    },
    {
      "name": "Line004_Idolf lag_0",
      "primitives": [
        {
          "attributes": {
            "NORMAL": 6,
            "POSITION": 5,
            "TANGENT": 7,
            "TEXCOORD_0": 8
          },
          "indices": 9,
          "material": 1,
          "mode": 4
        }
      ]
    }
  ],
  "nodes": [
    {
      "children": [
        1
      ],
      "matrix": [
        1.0,
        0.0,
        0.0,
        0.0,
        0.0,
        2.220446049250313e-16,
        -1.0,
        0.0,
        0.0,
        1.0,
        2.220446049250313e-16,
        0.0,
        0.0,
        0.0,
        0.0,
        1.0
      ],
      "name": "Sketchfab_model"
    },
    {
      "children": [
        2
      ],
      "matrix": [
        1.0,
        0.0,
        0.0,
        0.0,
        0.0,
        0.0,
        1.0,
        0.0,
        0.0,
        -1.0,
        0.0,
        0.0,
        0.0,
        0.0,
        0.0,
        1.0
      ],
      "name": "e084809ac5a84959b12e5a900617e7c1.fbx"
    },
    {
      "children": [
        3,
        6
      ],
      "name": "RootNode"
    },
    {
      "children": [
        4
      ],
      "matrix": [
        1.0,
        0.0,
        0.0,
        0.0,
        0.0,
        2.220446049250313e-16,
        -1.0,
        0.0,
        0.0,
        1.0,
        2.220446049250313e-16,
        0.0,
        13.975350379943848,
        59.697933197021484,
        -43.86100769042969,
        1.0
      ],
      "name": "Line001"
    },
    {
      "children": [
        5
      ],
      "matrix": [
        1.0,
        0.0,
        -0.0,
        0.0,
        0.0,
        1.0,
        0.0,
        0.0,
        0.0,
        0.0,
        1.0,
        0.0,
        -0.2065143585205078,
        5.826347351074219,
        -21.77255630493164,
        1.0
      ],
      "name": "Object_4"
    },
    {
      "mesh": 0,
      "name": "Line001_Idolf seat_0"
    },
    {
      "children": [
        7
      ],
      "matrix": [
        0.9999999999999848,
        8.742277657347453e-08,
        -1.509958025280843e-07,
        0.0,
        -1.509957893276109e-07,
        -1.5099580230604204e-07,
        -0.9999999999999771,
        0.0,
        -8.74227993732049e-08,
        0.9999999999999847,
        -1.5099578920541035e-07,
        0.0,
        13.860407829284668,
        40.86750793457031,
        -43.807373046875,
        1.0
      ],
      "name": "Line004"
    },
    {
      "children": [
        8
      ],
      "matrix": [
        -6.657902724080935e-07,
        -0.9999999999997713,
        -1.1920929094228772e-07,
        0.0,
        -7.930715395008463e-14,
        -1.1920929094226135e-07,
        0.9999999999999929,
        0.0,
        -0.9999999999997784,
        6.657902724080983e-07,
        6.123233995736723e-17,
        0.0,
        15.790471076965332,
        -15.754132270812988,
        -1.4257912635803223,
        1.0
      ],
      "name": "Object_7"
    },
    {
      "mesh": 1,
      "name": "Line004_Idolf lag_0"
    }
  ],
  "samplers": [
    {
      "magFilter": 9729,
      "minFilter": 9987,
      "wrapS": 10497,
      "wrapT": 10497
    }
  ],
  "scene": 0,
  "scenes": [
    {
      "name": "Sketchfab_Scene",
      "nodes": [
        0
      ]
    }
  ],
  "textures": [
    {
      "sampler": 0,
      "source": 0
    },
    {
      "sampler": 0,
      "source": 1
    },
    {
      "sampler": 0,
      "source": 2
    },
    {
      "sampler": 0,
      "source": 3
    },
    {
      "sampler": 0,
      "source": 4
    },
    {
      "sampler": 0,
      "source": 5
    }
  ]
}
