{
  "accessors": [
    {
      "bufferView": 2,
      "componentType": 5126,
      "count": 366,
      "max": [
        180.2085418701172,
        147.03448486328125,
        7.926993370056152
      ],
      "min": [
        61.496376037597656,
        46.470985412597656,
        -2.1356234550476074
      ],
      "type": "VEC3"
    },
    {
      "bufferView": 2,
      "byteOffset": 4392,
      "componentType": 5126,
      "count": 366,
      "max": [
        0.9211073517799377,
        0.9999659061431885,
        1.0
      ],
      "min": [
        -0.9240192174911499,
        -0.85905522108078,
        -1.0
      ],
      "type": "VEC3"
    },
    {
      "bufferView": 1,
      "componentType": 5126,
      "count": 366,
      "max": [
        1.0,
        1.0
      ],
      "min": [
        0.0,
        0.0
      ],
      "type": "VEC2"
    },
    {
      "bufferView": 0,
      "componentType": 5125,
      "count": 1296,
      "type": "SCALAR"
    },
    {
      "bufferView": 2,
      "byteOffset": 8784,
      "componentType": 5126,
      "count": 366,
      "max": [
        104.04435729980469,
        266.3626708984375,
        11.965601921081543
      ],
      "min": [
        -8.41278076171875,
        166.8453826904297,
        -0.6733155250549316
      ],
      "type": "VEC3"
    },
    {
      "bufferView": 2,
      "byteOffset": 13176,
      "componentType": 5126,
      "count": 366,
      "max": [
        0.9602310657501221,
        0.9991416931152344,
        0.999592661857605
      ],
      "min": [
        -0.8761090040206909,
        -0.9510549902915955,
        -0.9995962977409363
      ],
      "type": "VEC3"
    },
    {
      "bufferView": 1,
      "byteOffset": 2928,
      "componentType": 5126,
      "count": 366,
      "max": [
        1.0,
        1.0
      ],
      "min": [
        0.0,
        0.0
      ],
      "type": "VEC2"
    },
    {
      "bufferView": 0,
      "byteOffset": 5184,
      "componentType": 5125,
      "count": 1296,
      "type": "SCALAR"
    },
    {
      "bufferView": 2,
      "byteOffset": 17568,
      "componentType": 5126,
      "count": 366,
      "max": [
        208.71397399902344,
        241.48483276367188,
        7.926982879638672
      ],
      "min": [
        90.00181579589844,
        140.92129516601563,
        -2.135634422302246
      ],
      "type": "VEC3"
    },
    {
      "bufferView": 2,
      "byteOffset": 21960,
      "componentType": 5126,
      "count": 366,
      "max": [
        0.9211060404777527,
        0.9999659061431885,
        1.0
      ],
      "min": [
        -0.9240188002586365,
        -0.8590551614761353,
        -1.0
      ],
      "type": "VEC3"
    },
    {
      "bufferView": 1,
      "byteOffset": 5856,
      "componentType": 5126,
      "count": 366,
      "max": [
        1.0,
        1.0
      ],
      "min": [
        0.0,
        0.0
      ],
      "type": "VEC2"
    },
    {
      "bufferView": 0,
      "byteOffset": 10368,
      "componentType": 5125,
      "count": 1296,
      "type": "SCALAR"
    },
    {
      "bufferView": 2,
      "byteOffset": 26352,
      "componentType": 5126,
      "count": 366,
      "max": [
        75.75399017333984,
        172.13690185546875,
        11.965612411499023
      ],
      "min": [
        -36.703147888183594,
        72.61962890625,
        -0.6733042001724243
      ],
      "type": "VEC3"
    },
    {
      "bufferView": 2,
      "byteOffset": 30744,
      "componentType": 5126,
      "count": 366,
      "max": [
        0.960230827331543,
        0.9991416931152344,
        0.9995926022529602
      ],
      "min": [
        -0.8761094212532043,
        -0.9510551691055298,
        -0.9995962977409363
      ],
      "type": "VEC3"
    },
    {
      "bufferView": 1,
      "byteOffset": 8784,
      "componentType": 5126,
      "count": 366,
      "max": [
        1.0,
        1.0
      ],
      "min": [
        0.0,
        0.0
      ],
      "type": "VEC2"
    },
    {
      "bufferView": 0,
      "byteOffset": 15552,
      "componentType": 5125,
      "count": 1296,
      "type": "SCALAR"
    },
    {
      "bufferView": 2,
      "byteOffset": 35136,
      "componentType": 5126,
      "count": 4313,
      "max": [
        251.6455535888672,
        71.33206176757813,
        7.839919090270996
      ],
      "min": [
        -70.67941284179688,
        -18.99716567993164,
        1.990103006362915
      ],
      "type": "VEC3"
    },
    {
      "bufferView": 2,
      "byteOffset": 86892,
      "componentType": 5126,
      "count": 4313,
      "max": [
        1.0,
        1.0,
        1.0
      ],
      "min": [
        -1.0,
        -1.0,
        -1.0
      ],
      "type": "VEC3"
    },
    {
      "bufferView": 1,
      "byteOffset": 11712,
      "componentType": 5126,
      "count": 4313,
      "max": [
        25.400001525878906,
        65.20000457763672
      ],
      "min": [
        -25.399999618530273,
        -1.100000023841858
      ],
      "type": "VEC2"
    },
    {
      "bufferView": 0,
      "byteOffset": 20736,
      "componentType": 5125,
      "count": 7164,
      "type": "SCALAR"
    }
  ],
  "asset": {
    "extras": {
      "author": "Anthony Yanez (https://sketchfab.com/paulyanez)",
      "license": "CC-BY-4.0 (http://creativecommons.org/licenses/by/4.0/)",
      "source": "https://sketchfab.com/3d-models/windows-7-logo-1adae2880401491db9db902ba67e66f1",
      "title": "Windows 7 Logo"
    },
    "generator": "Sketchfab-12.66.0",
    "version": "2.0"
  },
  "bufferViews": [
    {
      "buffer": 0,
      "byteLength": 49392,
      "name": "floatBufferViews",
      "target": 34963
    },
    {
      "buffer": 0,
      "byteLength": 46216,
      "byteOffset": 49392,
      "byteStride": 8,
      "name": "floatBufferViews",
      "target": 34962
    },
    {
      "buffer": 0,
      "byteLength": 138648,
      "byteOffset": 95608,
      "byteStride": 12,
      "name": "floatBufferViews",
      "target": 34962
    }
  ],
  "buffers": [
    {
      "byteLength": 234256,
      "uri": "scene.bin"
    }
  ],
  "materials": [
    {
      "doubleSided": true,
      "name": "02_-_Default",
      "pbrMetallicRoughness": {
        "baseColorFactor": [
          0.705882,
          0.494118,
          0.0392157,
          1.0
        ],
        "metallicFactor": 0.5,
        "roughnessFactor": 0.25
      }
    },
    {
      "doubleSided": true,
      "name": "08_-_Default",
      "pbrMetallicRoughness": {
        "baseColorFactor": [
          0.85098,
          0.239216,
          0.0,
          1.0
        ],
        "metallicFactor": 0.5,
        "roughnessFactor": 0.25
      }
    },
    {
      "doubleSided": true,
      "name": "03_-_Default",
      "pbrMetallicRoughness": {
        "baseColorFactor": [
          0.25098,
          0.537255,
          0.0,
          1.0
        ],
        "metallicFactor": 0.5,
        "roughnessFactor": 0.25
      }
    },
    {
      "doubleSided": true,
      "name": "07_-_Default",
      "pbrMetallicRoughness": {
        "baseColorFactor": [
          0.0,
          0.333333,
          0.647059,
          1.0
        ],
        "metallicFactor": 0.5,
        "roughnessFactor": 0.25
      }
    },
    {
      "doubleSided": true,
      "name": "09_-_Default",
      "pbrMetallicRoughness": {
        "metallicFactor": 0.0,
        "roughnessFactor": 0.6224001335375237
      }
    }
  ],
  "meshes": [
    {
      "name": "Windows 7_02 - Default_0",
      "primitives": [
        {
          "attributes": {
            "NORMAL": 1,
            "POSITION": 0,
            "TEXCOORD_0": 2
          },
          "indices": 3,
          "material": 0,
          "mode": 4
        }
      ]
    },
    {
      "name": "Windows 7_08 - Default_0",
      "primitives": [
        {
          "attributes": {
            "NORMAL": 5,
            "POSITION": 4,
            "TEXCOORD_0": 6
          },
          "indices": 7,
          "material": 1,
          "mode": 4
        }
      ]
    },
    {
      "name": "Windows 7_03 - Default_0",
      "primitives": [
        {
          "attributes": {
            "NORMAL": 9,
            "POSITION": 8,
            "TEXCOORD_0": 10
          },
          "indices": 11,
          "material": 2,
          "mode": 4
        }
      ]
    },
    {
      "name": "Windows 7_07 - Default_0",
      "primitives": [
        {
          "attributes": {
            "NORMAL": 13,
            "POSITION": 12,
            "TEXCOORD_0": 14
          },
          "indices": 15,
          "material": 3,
          "mode": 4
        }
      ]
    },
    {
      "name": "Windows 7_09 - Default_0",
      "primitives": [
        {
          "attributes": {
            "NORMAL": 17,
            "POSITION": 16,
            "TEXCOORD_0": 18
          },
          "indices": 19,
          "material": 4,
          "mode": 4
        }
      ]
    }
  ],
  "nodes": [
    {
      "children": [
        1
      ],
      "matrix": [
        1.0,
        0.0,
        0.0,
        0.0,
        0.0,
        2.220446049250313e-16,
        -1.0,
        0.0,
        0.0,
        1.0,
        2.220446049250313e-16,
        0.0,
        0.0,
        0.0,
        0.0,
        1.0
      ],
      "name": "Sketchfab_model"
    },
    {
      "children": [
        2
      ],
      "matrix": [
        1.0,
        0.0,
        0.0,
        0.0,
        0.0,
        0.0,
        1.0,
        0.0,
        0.0,
        -1.0,
        0.0,
        0.0,
        0.0,
        0.0,
        0.0,
        1.0
      ],
      "name": "2dfaaf19544c427b985896068fb3a1ed.fbx"
    },
    {
      "children": [
        3
      ],
      "name": "RootNode"
    },
    {
      "children": [
        4
      ],
      "matrix": [
        1.0,
        0.0,
        0.0,
        0.0,
        0.0,
        0.9999999999999867,
        1.6292068494294582e-07,
        0.0,
        0.0,
        -1.6292068494294582e-07,
        0.9999999999999867,
        0.0,
        9.389419555664063,
        27.316024780273438,
        38.18644332885742,
        1.0
      ],
      "name": "Windows 7"
    },
    {
      "children": [
        5,
        6,
        7,
        8,
        9
      ],
      "matrix": [
        1.0,
        0.0,
        -0.0,
        0.0,
        0.0,
        1.0,
        0.0,
        0.0,
        0.0,
        0.0,
        1.0,
        0.0,
        -90.48307037353516,
        -123.70027160644531,
        -5.016982078552246,
        1.0
      ],
      "name": "Object_4"
    },
    {
      "mesh": 0,
      "name": "Windows 7_02 - Default_0"
    },
    {
      "mesh": 1,
      "name": "Windows 7_08 - Default_0"
    },
    {
      "mesh": 2,
      "name": "Windows 7_03 - Default_0"
    },
    {
      "mesh": 3,
      "name": "Windows 7_07 - Default_0"
    },
    {
      "mesh": 4,
      "name": "Windows 7_09 - Default_0"
    }
  ],
  "scene": 0,
  "scenes": [
    {
      "name": "Sketchfab_Scene",
      "nodes": [
        0
      ]
    }
  ]
}
